<?xml version="1.0" encoding="UTF-8" standalone="no"?>
<svg width="200px" height="244px" viewBox="0 0 413 503" version="1.1" xmlns="http://www.w3.org/2000/svg" xmlns:xlink="http://www.w3.org/1999/xlink">
    <defs>
        <path d="M202.77831,495 C354.442251,495 418.731644,382.169998 401.77831,247.5 C384.824976,112.830002 312.682975,0 202.77831,0 C92.873645,0 22.7069544,110.0308 3.77831024,247.5 C-15.1503339,384.9692 51.1143698,495 202.77831,495 Z M99,96.9989316 C99,92.0289589 103.030555,88 107.994276,88 L297.005724,88 C301.973126,88 306,92.0306368 306,96.9989316 L306,305.001068 C306,309.971041 301.969445,314 297.005724,314 L107.994276,314 C103.026874,314 99,309.969363 99,305.001068 L99,96.9989316 Z" id="path-1"></path>
    </defs>
    <g id="Page-1" stroke="none" stroke-width="1" fill="none" fill-rule="evenodd">
        <g id="iPad-Landscape" transform="translate(-537.000000, -46.000000)">
            <g id="Group-+-Oval-1" transform="translate(541.000000, 49.000000)">
                <g id="Group">
                    <mask id="mask-2" fill="white">
                        <use xlink:href="#path-1"></use>
                    </mask>
                    <use id="Mask" fill="#FFFFFF" xlink:href="#path-1"></use>
                    <path d="M134.5,201 C144.303054,168.967485 136.356109,143 116.75,143 C97.1438914,143 73.3030543,168.967485 63.5,201 C53.6969457,233.032515 61.6438914,259 81.25,259 C100.856109,259 124.696946,233.032515 134.5,201 Z" id="Oval-3" fill="#D8D8D8" mask="url(#mask-2)"></path>
                    <path d="M75.8232545,393 C85.6263088,360.967485 77.6793631,335 58.0732545,335 C38.4671459,335 14.6263088,360.967485 4.82325449,393 C-4.97979982,425.032515 2.96714588,451 22.5732545,451 C42.1793631,451 66.0202002,425.032515 75.8232545,393 Z" id="Oval-3-Copy-3" fill="#D8D8D8" mask="url(#mask-2)"></path>
                    <path d="M341.5,414 C351.303054,381.967485 343.356109,356 323.75,356 C304.143891,356 280.303054,381.967485 270.5,414 C260.696946,446.032515 268.643891,472 288.25,472 C307.856109,472 331.696946,446.032515 341.5,414 Z" id="Oval-3-Copy-6" fill="#D8D8D8" mask="url(#mask-2)"></path>
                    <path d="M192.022553,351.872114 C198.973913,329.15781 193.338722,310.744228 179.436002,310.744228 C165.533281,310.744228 148.627708,329.15781 141.676348,351.872114 C134.724988,374.586418 140.360179,393 154.262899,393 C168.16562,393 185.071193,374.586418 192.022553,351.872114 Z" id="Oval-3-Copy-7" fill="#D8D8D8" mask="url(#mask-2)"></path>
                    <path d="M278.198901,85 C288.001955,52.9674845 280.05501,27 260.448901,27 C240.842792,27 217.001955,52.9674845 207.198901,85 C197.395847,117.032515 205.342792,143 224.948901,143 C244.55501,143 268.395847,117.032515 278.198901,85 Z" id="Oval-3-Copy" fill="#D8D8D8" mask="url(#mask-2)"></path>
                    <path d="M439.92469,247.5 C449.727745,215.467485 441.780799,189.5 422.17469,189.5 C402.568582,189.5 378.727745,215.467485 368.92469,247.5 C359.121636,279.532515 367.068582,305.5 386.67469,305.5 C406.280799,305.5 430.121636,279.532515 439.92469,247.5 Z" id="Oval-3-Copy-4" fill="#D8D8D8" mask="url(#mask-2)"></path>
                    <path d="M332.5,247.5 C342.303054,215.467485 334.356109,189.5 314.75,189.5 C295.143891,189.5 271.303054,215.467485 261.5,247.5 C251.696946,279.532515 259.643891,305.5 279.25,305.5 C298.856109,305.5 322.696946,279.532515 332.5,247.5 Z" id="Oval-3-Copy-5" fill="#D8D8D8" mask="url(#mask-2)"></path>
                    <path d="M182.673691,72.9467696 C190.43953,47.5710695 184.144073,27 168.612395,27 C153.080716,27 134.194347,47.5710695 126.428507,72.9467696 C118.662668,98.3224698 124.958125,118.893539 140.489803,118.893539 C156.021482,118.893539 174.907851,98.3224698 182.673691,72.9467696 Z" id="Oval-3-Copy-2" fill="#D8D8D8" mask="url(#mask-2)"></path>
                </g>
                <path d="M202.77831,496 C354.442251,496 418.731644,383.169998 401.77831,248.5 C384.824976,113.830002 312.682975,1 202.77831,1 C92.873645,1 22.7069544,111.0308 3.77831024,248.5 C-15.1503339,385.9692 51.1143698,496 202.77831,496 Z" id="Oval-1" stroke="#9B9B9B" stroke-width="8"></path>
            </g>
        </g>
    </g>
</svg>
